<?xml version="1.0" encoding="UTF-8" standalone="no"?>
<!-- Generator: Adobe Illustrator 24.2.3, SVG Export Plug-In . SVG Version: 6.00 Build 0)  -->

<svg
   version="1.1"
   id="Layer_1"
   x="0px"
   y="0px"
   viewBox="0 0 109.70031 109.7103"
   xml:space="preserve"
   sodipodi:docname="helios-trainer.svg"
   width="109.70031"
   height="109.7103"
   inkscape:version="1.1.2 (0a00cf5339, 2022-02-04)"
   xmlns:inkscape="http://www.inkscape.org/namespaces/inkscape"
   xmlns:sodipodi="http://sodipodi.sourceforge.net/DTD/sodipodi-0.dtd"
   xmlns="http://www.w3.org/2000/svg"
   xmlns:svg="http://www.w3.org/2000/svg"><defs
   id="defs13" /><sodipodi:namedview
   id="namedview11"
   pagecolor="#ffffff"
   bordercolor="#666666"
   borderopacity="1.0"
   inkscape:pageshadow="2"
   inkscape:pageopacity="0.0"
   inkscape:pagecheckerboard="0"
   showgrid="false"
   fit-margin-top="0"
   fit-margin-left="0"
   fit-margin-right="0"
   fit-margin-bottom="0"
   inkscape:zoom="10.491267"
   inkscape:cx="54.855148"
   inkscape:cy="54.855148"
   inkscape:window-width="5120"
   inkscape:window-height="1368"
   inkscape:window-x="0"
   inkscape:window-y="48"
   inkscape:window-maximized="1"
   inkscape:current-layer="Layer_1" />
<style
   type="text/css"
   id="style2">
	.st0{fill:#442F4F;}
</style>
<g
   id="g8"
   transform="translate(-14.789695,-11.479752)">
	<path
   class="st0"
   d="M 124.49,66.37 C 124.46,96.71 99.95,121.23 69.57,121.19 39.18,121.15 14.69,96.62 14.79,66.14 14.89,35.81 39.38,11.39 69.81,11.48 c 30.27,0.08 54.69,24.56 54.68,54.89 z M 64.91,40.65 c -7.96,2.73 -13.22,11.13 -11.44,20.11 1.56,7.85 8.44,13.71 16.5,14.04 8.06,0.33 15.37,-4.95 17.58,-12.72 1.1,-3.86 0.92,-7.7 -0.62,-11.41 -2.12,-5.1 -5.89,-8.45 -11.11,-10.22 -0.03,-3.98 -0.07,-7.92 -0.1,-11.87 0.12,-0.01 0.18,-0.02 0.23,-0.01 1.6,0.16 3.2,0.41 4.76,0.8 8.92,2.21 15.34,7.43 19.1,15.86 1.46,3.28 2.18,6.71 2.08,10.3 -0.08,2.82 -0.54,5.58 -1.26,8.3 -0.96,3.61 -2.32,7.07 -3.86,10.47 -0.98,2.16 -2.01,4.3 -2.99,6.46 -0.75,1.66 -1.19,3.39 -1.23,5.22 -0.04,1.82 0.24,3.59 1.01,5.22 1.73,3.62 5.79,7.93 6.11,8.14 C 114.6,86.08 119.1,63 108.49,44.34 97.14,24.36 73.41,16.7 52.95,24.91 32.43,33.15 20.73,55.25 26.44,77.67 c 1.04,4.09 2.67,7.94 4.84,11.56 2.17,3.62 4.8,6.87 7.89,9.75 3.08,2.88 6.51,5.29 10.27,7.2 3.49,1.77 10.49,4.1 11.86,3.93 -0.07,-0.13 -0.13,-0.25 -0.2,-0.37 -0.51,-0.82 -1.02,-1.65 -1.54,-2.47 -0.65,-1.03 -1.3,-2.05 -1.94,-3.08 -0.68,-1.1 -1,-2.31 -1.04,-3.6 -0.02,-0.73 -0.09,-1.46 -0.2,-2.17 -0.26,-1.64 -1.34,-2.62 -3,-2.7 -0.86,-0.04 -1.73,-0.02 -2.6,0.05 -2.36,0.2 -4.71,0.21 -7.05,-0.17 -0.91,-0.15 -1.8,-0.35 -2.61,-0.82 -0.96,-0.57 -1.57,-1.39 -1.81,-2.48 -0.15,-0.7 -0.13,-1.41 -0.04,-2.12 0.13,-1.04 0.44,-2.03 0.79,-3.01 0.22,-0.6 0.23,-1.19 0.01,-1.78 -0.23,-0.6 -0.45,-1.2 -0.75,-1.77 -0.47,-0.89 -0.97,-1.76 -1.5,-2.61 -0.46,-0.73 -0.65,-1.5 -0.48,-2.33 0.16,-0.8 0.37,-1.58 0.57,-2.37 0.15,-0.59 0.34,-1.16 0.49,-1.75 0.11,-0.44 0,-0.65 -0.39,-0.84 -0.25,-0.12 -0.52,-0.2 -0.78,-0.26 -0.69,-0.15 -1.4,-0.26 -2.09,-0.43 -0.4,-0.1 -0.79,-0.25 -1.16,-0.44 -0.45,-0.24 -0.69,-0.66 -0.58,-1.17 0.08,-0.38 0.19,-0.78 0.39,-1.12 0.34,-0.58 0.74,-1.13 1.16,-1.66 0.86,-1.07 1.77,-2.09 2.63,-3.16 1.09,-1.36 2.04,-2.81 2.62,-4.46 0.19,-0.53 0.3,-1.1 0.38,-1.66 0.09,-0.68 -0.2,-1.29 -0.44,-1.9 -0.42,-1.03 -0.52,-2.09 -0.29,-3.16 0.19,-0.88 0.41,-1.76 0.69,-2.61 1.03,-3.13 3.45,-9.61 6.64,-13.15 4.12,-4.57 9.4,-7.38 15.33,-8.96 0.78,-0.21 1.58,-0.37 2.43,-0.57 -0.03,3.91 -0.03,7.76 -0.03,11.64 z"
   id="path4" />
	<path
   class="st0"
   d="m 64.96,42.88 c 0,3.44 0,6.83 0,10.21 -0.48,-0.13 -0.94,-0.29 -1.41,-0.37 -2.15,-0.34 -4.15,1.18 -4.52,3.41 -0.34,2.06 1.14,4.17 3.21,4.54 2.7,0.49 5.03,-1.65 4.78,-4.38 -0.03,-0.34 0.07,-0.68 0.06,-1.02 C 67.06,48.89 67.03,42.51 67,36.13 c 0,-2.31 0,-4.62 0,-6.93 0,-0.15 0,-0.31 0,-0.52 0.81,-0.07 1.57,-0.14 2.39,-0.22 0,10.99 0,21.9 0,32.84 -1.14,0.44 -1.99,1.19 -2.46,2.33 -0.35,0.87 -0.39,1.76 -0.13,2.65 0.51,1.78 2.25,3.01 4.09,2.89 1.91,-0.12 3.45,-1.51 3.76,-3.44 0.17,-1.04 -0.07,-2 -0.66,-2.87 -0.52,-0.77 -1.02,-1.12 -2.46,-1.71 0,-10.88 0,-21.77 0,-32.67 0.38,-0.13 1.43,-0.14 2.07,-0.02 0.01,0.14 0.03,0.29 0.03,0.44 0.07,8.77 0.13,17.54 0.21,26.32 0.01,0.68 0.01,1.38 0.1,2.05 0.26,2.03 2.06,3.54 4.09,3.47 2.09,-0.07 3.78,-1.71 3.91,-3.8 0.14,-2.04 -1.35,-3.88 -3.39,-4.22 -0.74,-0.12 -1.45,-0.03 -2.14,0.23 -0.14,0.05 -0.28,0.12 -0.51,0.21 -0.03,-3.53 -0.06,-7 -0.09,-10.48 4.93,1.5 10.63,7.07 10.36,15.12 -0.27,7.77 -6.35,14.26 -14.2,14.9 -8.39,0.68 -15.36,-5.24 -16.6,-12.93 -1.32,-8.13 3.78,-14.72 9.59,-16.89 z"
   id="path6" />
</g>
</svg>
