<?xml version="1.0" encoding="UTF-8" standalone="no"?>
<!-- Created with Inkscape (http://www.inkscape.org/) -->

<svg
   version="1.1"
   id="svg2"
   xml:space="preserve"
   width="253.90668"
   height="253.90668"
   viewBox="0 0 253.90668 253.90668"
   sodipodi:docname="com.cartesiantheatre.helios_training_session.svg"
   inkscape:version="1.1.2 (0a00cf5339, 2022-02-04)"
   xmlns:inkscape="http://www.inkscape.org/namespaces/inkscape"
   xmlns:sodipodi="http://sodipodi.sourceforge.net/DTD/sodipodi-0.dtd"
   xmlns="http://www.w3.org/2000/svg"
   xmlns:svg="http://www.w3.org/2000/svg"><defs
     id="defs6" /><sodipodi:namedview
     id="namedview4"
     pagecolor="#ffffff"
     bordercolor="#666666"
     borderopacity="1.0"
     inkscape:pageshadow="2"
     inkscape:pageopacity="0.0"
     inkscape:pagecheckerboard="0"
     showgrid="false"
     inkscape:zoom="2.56"
     inkscape:cx="339.64844"
     inkscape:cy="110.35156"
     inkscape:window-width="5120"
     inkscape:window-height="1368"
     inkscape:window-x="0"
     inkscape:window-y="48"
     inkscape:window-maximized="1"
     inkscape:current-layer="g8" /><g
     id="g8"
     inkscape:groupmode="layer"
     inkscape:label="ink_ext_XXXXXX"
     transform="matrix(1.3333333,0,0,-1.3333333,0,253.90667)"><g
       id="g10"
       transform="scale(0.1)"><path
         d="M 540.609,917.309 H 376.473 V 726.73 h 164.136 z m 0,260.281 H 376.473 V 987.016 H 540.609 Z M 1516.38,917.309 H 1352.24 V 726.73 h 164.14 z m -237.09,0 H 1115.15 V 454.512 h 164.14 z m -245,0 H 870.152 V 360.32 h 164.138 z m -248.571,0 H 621.578 V 536.16 H 785.719 Z M 1516.38,1177.59 H 1352.24 V 987.016 h 164.14 z m -237.09,272.23 H 1115.15 V 987.016 h 164.14 z m -245,94.19 H 870.152 V 987.016 H 1034.29 Z M 785.719,1368.16 H 621.578 V 987.016 H 785.719 Z M 1904.32,952.164 C 1904.32,426.301 1478.02,0 952.164,0 426.297,0 0,426.301 0,952.164 c 0,525.856 426.297,952.156 952.164,952.156 525.856,0 952.156,-426.3 952.156,-952.156"
         style="fill:#3d2a4a;fill-opacity:1;fill-rule:nonzero;stroke:none"
         id="path12" /></g></g></svg>
